<?xml version="1.0" encoding="utf-8"?>
<!-- Generator: Adobe Illustrator 16.0.0, SVG Export Plug-In . SVG Version: 6.00 Build 0)  -->
<!DOCTYPE svg PUBLIC "-//W3C//DTD SVG 1.1//EN" "http://www.w3.org/Graphics/SVG/1.1/DTD/svg11.dtd">
<svg version="1.1" id="Layer_1" xmlns="http://www.w3.org/2000/svg" xmlns:xlink="http://www.w3.org/1999/xlink" x="0px" y="0px"
	 width="382.5px" height="200px" viewBox="10 3 375 192" enable-background="new 0 0 382.5 200" xml:space="preserve">
<circle fill="#0066B3" cx="170.97" cy="37.168" r="1.4"/>
<circle fill="#0066B3" cx="78.522" cy="62.67" r="1.4"/>
<circle fill="#0066B3" cx="72.147" cy="65.858" r="1.4"/>
<circle fill="#0066B3" cx="81.711" cy="43.543" r="1.4"/>
<circle fill="#0066B3" cx="72.147" cy="49.919" r="1.4"/>
<circle fill="#0066B3" cx="81.711" cy="56.295" r="1.4"/>
<circle fill="#0066B3" cx="323.986" cy="78.61" r="1.4"/>
<circle fill="#0066B3" cx="244.291" cy="81.798" r="1.4"/>
<circle fill="#0066B3" cx="190.097" cy="46.731" r="1.4"/>
<circle fill="#0066B3" cx="292.108" cy="62.67" r="1.4"/>
<circle fill="#0066B3" cx="192.138" cy="27.604" r="1.4"/>
<circle fill="#0066B3" cx="107.213" cy="132.804" r="1.4"/>
<circle fill="#0066B3" cx="78.522" cy="81.798" r="1.4"/>
<circle fill="#0066B3" cx="46.644" cy="88.173" r="1.4"/>
<circle fill="#0066B3" cx="40.268" cy="49.919" r="1.4"/>
<circle fill="#0066B3" cx="193.284" cy="53.107" r="1.4"/>
<circle fill="#0066B3" cx="190.097" cy="43.543" r="1.4"/>
<circle fill="#0066B3" cx="186.909" cy="30.792" r="1.4"/>
<circle fill="#0066B3" cx="301.73" cy="107.36" r="1.4"/>
<circle fill="#0066B3" cx="327.175" cy="110.489" r="1.4"/>
<circle fill="#0066B3" cx="329.859" cy="89.978" r="1.4"/>
<circle fill="#0066B3" cx="279.357" cy="78.61" r="1.4"/> // Headquarter
<circle fill="#0066B3" cx="279.357" cy="78.61" r="3.4"/> // Headquarter 1
<circle fill="#fff" cx="279.357" cy="78.61" r="2.4"/> // Headquarter 1
<circle fill="#0066B3" cx="279.357" cy="78.61" r="1.4"/> // Headquarter 1

<circle fill="#0066B3" cx="202.849" cy="158.306" r="1.4"/>
<circle fill="#0066B3" cx="231.539" cy="75.422" r="1.4"/>
<circle fill="#0066B3" cx="183.721" cy="43.543" r="1.4"/>
<circle fill="#0066B3" cx="347.568" cy="62.67" r="1.4"/>
<path fill="#0066B3" d="M309.315,135.719c-0.588,0.414-0.73,1.225-0.317,1.814c0.414,0.59,1.227,0.732,1.815,0.319
	c0.589-0.414,0.73-1.228,0.316-1.814c-0.06-0.089-0.131-0.161-0.206-0.227c-0.137-0.061-0.222-0.122-0.285-0.189
	C310.226,135.419,309.719,135.435,309.315,135.719z"/>
<circle fill="#0066B3" cx="368.603" cy="188.083" r="1.4"/>
<circle fill="#0066B3" cx="53.019" cy="72.234" r="1.4"/>
<circle fill="#0066B3" cx="91.274" cy="49.919" r="1.4"/>
<circle fill="#0066B3" cx="62.583" cy="53.108" r="1.4"/>
<circle fill="#0066B3" cx="346.302" cy="151.931" r="1.4"/>
<circle fill="#0066B3" cx="174.158" cy="37.168" r="1.4"/>
<circle fill="#0066B3" cx="190.097" cy="24.417" r="1.4"/>
<circle fill="#0066B3" cx="196.473" cy="40.356" r="1.4"/>
<circle fill="#0066B3" cx="68.959" cy="56.295" r="1.4"/>
<circle fill="#0066B3" cx="84.898" cy="56.295" r="1.4"/>
</svg>
