<?xml version="1.0" encoding="UTF-8" standalone="no"?>
<svg
   xmlns:dc="http://purl.org/dc/elements/1.1/"
   xmlns:cc="http://creativecommons.org/ns#"
   xmlns:rdf="http://www.w3.org/1999/02/22-rdf-syntax-ns#"
   xmlns:svg="http://www.w3.org/2000/svg"
   xmlns="http://www.w3.org/2000/svg"
   xmlns:sodipodi="http://sodipodi.sourceforge.net/DTD/sodipodi-0.dtd"
   xmlns:inkscape="http://www.inkscape.org/namespaces/inkscape"
   version="1.1"
   x="0px"
   y="0px"
   width="100px"
   height="100px"
   viewBox="5.0 -10.0 100.0 135.0"
   enable-background="new 0 0 100 100"
   xml:space="preserve"
   id="svg2"
   inkscape:version="0.91 r13725"
   sodipodi:docname="money.svg"><metadata
     id="metadata25"><rdf:RDF><cc:Work
         rdf:about=""><dc:format>image/svg+xml</dc:format><dc:type
           rdf:resource="http://purl.org/dc/dcmitype/StillImage" /></cc:Work></rdf:RDF></metadata><defs
     id="defs23" /><sodipodi:namedview
     pagecolor="#ffffff"
     bordercolor="#666666"
     borderopacity="1"
     objecttolerance="10"
     gridtolerance="10"
     guidetolerance="10"
     inkscape:pageopacity="0"
     inkscape:pageshadow="2"
     inkscape:window-width="664"
     inkscape:window-height="480"
     id="namedview21"
     showgrid="false"
     inkscape:zoom="2.36"
     inkscape:cx="50"
     inkscape:cy="46.03044"
     inkscape:window-x="0"
     inkscape:window-y="0"
     inkscape:window-maximized="0"
     inkscape:current-layer="Layer_1" /><g
     id="Layer_1"><g
       id="Layer_1_1_" /><path
       d="M74.459,32.905c-2.571-2.301-5.848-3.62-8.987-3.62c-2.83,0-5.334,1.054-7.046,2.97c-3.751,4.193-2.66,11.309,2.43,15.862   c2.573,2.301,5.848,3.62,8.986,3.62c0.001,0,0.001,0,0.001,0c2.83,0,5.334-1.054,7.046-2.97c1.822-2.035,2.569-4.81,2.105-7.812   C78.531,37.966,76.922,35.107,74.459,32.905z M74.173,47.565l-1.534-1.372l-0.115,0.119c-0.991,1.038-1.878,1.52-2.56,1.816   l-1.335-1.974c0.628-0.25,1.637-0.709,2.622-1.812c0.472-0.527,0.717-1.035,0.729-1.511c0.011-0.402-0.153-0.776-0.462-1.051   c-0.226-0.202-0.498-0.299-0.832-0.299c-0.571,0-1.337,0.277-2.646,0.956c-2.445,1.291-3.978,1.258-5.56-0.158   c-1.604-1.435-1.817-3.58-0.558-5.601l0.076-0.121l-1.781-1.594l1.241-1.39l1.654,1.48l0.114-0.116   c1.076-1.095,2.307-1.785,3.091-2.067l1.401,2.038c-0.787,0.285-2.063,0.888-3.099,2.043c-0.451,0.504-0.727,1.027-0.799,1.513   c-0.078,0.521,0.08,0.975,0.457,1.311c0.716,0.638,1.593,0.552,3.308-0.397c2.601-1.419,4.233-1.441,5.679-0.149   c1.536,1.374,1.749,3.385,0.567,5.378l-0.069,0.121l1.637,1.465L74.173,47.565z"
       id="path6"
       style="fill:#ffffff;fill-opacity:1" /><polygon
       points="74.646,17.265 80.334,22.351 81.909,20.589 74.461,13.929 64.75,24.787 66.512,26.362  "
       id="polygon8"
       style="fill:#ffffff;fill-opacity:1" /><polygon
       points="85.834,24.101 84.259,25.861 89.945,30.947 81.809,40.044 83.569,41.62 93.282,30.761  "
       id="polygon10"
       style="fill:#ffffff;fill-opacity:1" /><rect
       x="72.274"
       y="25.979"
       transform="matrix(-0.7454 -0.6666 0.6666 -0.7454 118.9775 99.7633)"
       width="12.534"
       height="2.363"
       id="rect12"
       style="fill:#ffffff;fill-opacity:1" /><path
       d="M99.956,49.911h-14.81l-5.583,6.431h-3.093l23.406-26.173L74.182,7.191L40.43,44.929l-1.724-1.542L73.889,4.05   l23.879,21.356l1.623-1.814L73.695,0.614L61.451,14.306L38.868,6.515L23.891,49.911H0V100h99.956h0.027L99.956,49.911z    M53.508,23.186l-8.604-2.97l-4.174,11.638l2.232,0.771l3.403-9.405l5.436,1.876l-16.529,18.48l3.535,3.167L35.626,50.3   l4.493,4.019l-6.095-2.104l-0.771,2.233l5.491,1.895h-9.136l13.829-40.068l12.42,4.287L53.508,23.186z M40.375,9.606l19.317,6.666   l-2.077,2.322l-15.688-5.412l-14.895,43.16h-2.787L40.375,9.606z M43.179,74.877H7.003v-2.29h36.176V74.877z M43.179,67.039H7.003   v-2.291h36.176V67.039z M50.756,95.188h-2.291V61.271h2.291V95.188z M69.123,54.229l-1.891,2.113h-6.384l0.564-0.632l-9.343-8.354   l-1.574,1.761l8.08,7.226h-8.644l1.443-1.613l-5.687-5.086l8.138-9.098l-1.761-1.575l-9.713,10.859l7.283,6.513h-3.608L39.06,50.11   l35.316-39.485l22.068,19.737L73.209,56.342h-2.806l0.481-0.538L69.123,54.229z M74.131,73.512c-1.655,0-2.996-1.341-2.996-2.995   s1.341-2.996,2.996-2.996c1.654,0,2.995,1.342,2.995,2.996S75.785,73.512,74.131,73.512z"
       id="path14"
       style="fill:#ffffff;fill-opacity:1" /></g><g
     id="Layer_2" /></svg>