<svg xmlns="http://www.w3.org/2000/svg" xmlns:xlink="http://www.w3.org/1999/xlink" version="1.1" x="0px" y="0px" viewBox="0 0 72 90" enable-background="new 0 0 72 72" xml:space="preserve"><path d="M42.1,39.5c2.6,2.6,6.7,2.6,9.3,0l18.2-18.2c2.6-2.6,2.6-6.7,0-9.3L60,2.4c-2.6-2.6-6.7-2.6-9.3,0L32.5,20.6  c-2.6,2.6-2.6,6.7,0,9.3l2.5,2.5c0.2,0.2,0.2,0.5,0,0.7l-1.9,1.9c-0.2,0.2-0.5,0.2-0.7,0l-2.5-2.5c-2.6-2.6-6.7-2.6-9.3,0L2.4,50.7  c-2.6,2.6-2.6,6.7,0,9.3l9.5,9.5c2.6,2.6,6.7,2.6,9.3,0l18.2-18.2c2.6-2.6,2.6-6.7,0-9.3l-2.5-2.5c-0.2-0.2-0.2-0.5,0-0.7l1.9-1.9  c0.2-0.2,0.5-0.2,0.7,0L42.1,39.5z M35.7,45.8c0.5,0.5,0.5,1.3,0,1.8L17.5,65.8c-0.5,0.5-1.3,0.5-1.8,0l-9.5-9.5  c-0.5-0.5-0.5-1.3,0-1.8l18.2-18.2c0.5-0.5,1.3-0.5,1.8,0l2.5,2.5c0.2,0.2,0.2,0.5,0,0.7L23,45.3c-1,1-1.2,2.6-0.3,3.7  c1,1.2,2.8,1.3,3.9,0.2l5.8-5.8c0.2-0.2,0.5-0.2,0.7,0L35.7,45.8z M36.3,26.2c-0.5-0.5-0.5-1.3,0-1.8L54.5,6.2  c0.5-0.5,1.3-0.5,1.8,0l9.5,9.5c0.5,0.5,0.5,1.3,0,1.8L47.6,35.7c-0.5,0.5-1.3,0.5-1.8,0l-2.5-2.5c-0.2-0.2-0.2-0.5,0-0.7l5.7-5.7  c1-1,1.2-2.6,0.3-3.7c-1-1.2-2.8-1.3-3.9-0.2l-5.8,5.8c-0.2,0.2-0.5,0.2-0.7,0L36.3,26.2z"/><text x="0" y="87" fill="#000000" font-size="5px" font-weight="bold" font-family="'Helvetica Neue', Helvetica, Arial-Unicode, Arial, Sans-serif">Created by Creative Stall</text><text x="0" y="92" fill="#000000" font-size="5px" font-weight="bold" font-family="'Helvetica Neue', Helvetica, Arial-Unicode, Arial, Sans-serif">from the Noun Project</text></svg>