<svg xmlns="http://www.w3.org/2000/svg" xmlns:xlink="http://www.w3.org/1999/xlink" version="1.1" x="0px" y="0px" viewBox="0 0 72 90" enable-background="new 0 0 72 72" xml:space="preserve"><path fill="#000000" d="M59.1,4.5c-2.9,0.5-5.2,2.8-5.7,5.7c-0.4,2,0,3.9,1,5.4c0.1,0.1,0.1,0.3,0,0.4L44.3,26.9  C44.2,27,44,27.1,43.8,27c-1.8-1.1-3.8-1.7-6-1.7c-1.3,0-2.5,0.2-3.6,0.6c-0.1,0-0.3,0-0.4-0.1l-6-12c-0.1-0.1,0-0.3,0.1-0.4  c1.8-1.5,2.9-3.9,2.6-6.5c-0.4-3.3-3-5.9-6.3-6.3C19.7,0,15.8,3.5,16,8c0.1,2.9,2,5.4,4.6,6.6c1.5,0.6,2.9,0.7,4.2,0.4  c0.1,0,0.3,0,0.3,0.2l6.1,12c0.1,0.1,0,0.3-0.1,0.4c-2.5,1.8-4.3,4.5-4.8,7.6c-0.1,0.5-0.1,1.8-0.1,2.4c0,0.2-0.1,0.3-0.3,0.4  l-7.6,2.1c-0.2,0-0.3,0-0.4-0.2c-1.4-2.5-4.3-4.1-7.4-3.6c-3,0.4-5.8,3.4-6.2,6.4c-0.5,4.4,2.9,8.1,7.2,8.1c2.9,0,5.4-1.7,6.6-4.1  c0.4-0.8,0.6-2.7,0.7-3.3c0-0.2,0.1-0.3,0.3-0.3l7.3-2c0.2-0.1,0.4,0.1,0.5,0.2c1.6,4.5,5.9,7.7,11,7.7c0.5,0,1,0,1.5-0.1  c0.2,0,0.4,0.1,0.4,0.3l2.5,8.6c0.1,0.2,0,0.4-0.2,0.5c-2.4,1.5-3.9,4.3-3.4,7.4c0.5,3.2,3.2,5.8,6.4,6.1c4.4,0.5,8.1-2.9,8.1-7.2  c0-3.2-2-5.9-4.9-6.9c-0.6-0.2-2.1-0.3-2.7-0.4c-0.2,0-0.3-0.1-0.4-0.3l-2.6-8.6c-0.1-0.2,0-0.4,0.2-0.5c3.9-1.9,6.7-5.9,6.7-10.6  c0-3-1.1-5.7-2.9-7.7c-0.1-0.1-0.1-0.3,0-0.5l9.9-10.7c0.1-0.1,0.3-0.1,0.4-0.1c1.5,0.8,3.3,1.2,5.2,0.7c2.8-0.6,4.9-2.9,5.5-5.7  C68.6,8,64.2,3.6,59.1,4.5z"/><text x="0" y="87" fill="#000000" font-size="5px" font-weight="bold" font-family="'Helvetica Neue', Helvetica, Arial-Unicode, Arial, Sans-serif">Created by Creative Stall</text><text x="0" y="92" fill="#000000" font-size="5px" font-weight="bold" font-family="'Helvetica Neue', Helvetica, Arial-Unicode, Arial, Sans-serif">from the Noun Project</text></svg>