<?xml version="1.0" standalone="no"?>
<!DOCTYPE svg PUBLIC "-//W3C//DTD SVG 20010904//EN"
 "http://www.w3.org/TR/2001/REC-SVG-20010904/DTD/svg10.dtd">
<svg version="1.0" xmlns="http://www.w3.org/2000/svg"
 width="360.000000pt" height="360.000000pt" viewBox="0 0 360.000000 360.000000"
 preserveAspectRatio="xMidYMid meet">
<metadata>
Created by potrace 1.11, written by Peter Selinger 2001-2013
</metadata>
<g transform="translate(0.000000,360.000000) scale(0.100000,-0.100000)"
fill="#000000" stroke="none">
<path d="M1717 3309 c-10 -6 -59 -12 -109 -15 -78 -4 -96 -8 -124 -29 -18 -14
-37 -25 -43 -25 -5 0 -14 -6 -18 -14 -4 -8 -19 -16 -33 -18 -15 -2 -30 -14
-38 -30 -7 -16 -18 -29 -25 -29 -7 -1 2 -4 18 -8 l30 -7 -28 -18 c-15 -11 -42
-19 -60 -20 -18 -1 -38 -6 -45 -13 -7 -7 -20 -10 -30 -7 -15 5 -14 4 1 -6 18
-11 18 -13 1 -31 -9 -10 -12 -19 -6 -19 6 0 9 -7 5 -16 -3 -8 -12 -13 -19 -10
-9 4 -14 -2 -14 -15 0 -11 -5 -17 -10 -14 -6 4 -8 11 -5 16 4 5 -3 9 -14 9
-12 0 -21 -4 -21 -10 0 -5 5 -10 10 -10 17 0 11 -41 -10 -67 -20 -26 -18 -48
5 -39 7 2 21 -1 31 -8 16 -12 16 -15 1 -37 -18 -25 -23 -69 -8 -69 5 0 11 -9
14 -20 7 -26 27 -26 27 1 0 11 4 18 10 14 5 -3 7 -12 3 -20 -3 -8 0 -15 6 -15
6 0 11 8 11 17 0 15 2 14 14 -3 8 -10 12 -29 9 -41 -4 -19 -1 -23 18 -24 13 0
18 -3 12 -6 -7 -2 -13 -11 -13 -19 0 -8 -10 -14 -25 -14 -19 0 -23 -4 -18 -17
3 -10 2 -15 -2 -10 -5 4 -23 -8 -40 -27 -32 -35 -34 -43 -61 -239 -8 -54 15
-40 45 28 13 30 27 55 32 55 5 0 8 3 8 8 -4 25 2 35 13 24 9 -9 7 -21 -7 -51
-10 -22 -21 -39 -24 -36 -4 2 -7 -4 -7 -14 0 -10 6 -18 13 -18 6 0 11 3 10 6
-1 3 1 6 5 6 3 0 16 12 28 28 12 15 27 27 33 27 7 -1 3 -9 -8 -18 -11 -10 -21
-24 -23 -32 -5 -21 -22 -40 -37 -40 -9 0 -11 -8 -7 -22 3 -14 2 -19 -6 -14
-14 9 -15 -3 -2 -24 7 -11 1 -18 -23 -28 -18 -8 -45 -16 -62 -19 -16 -3 -34
-10 -38 -16 -4 -7 -6 -46 -3 -87 3 -55 -1 -92 -15 -140 -13 -46 -16 -74 -10
-95 5 -20 4 -39 -5 -56 -7 -14 -13 -59 -15 -100 -1 -55 -8 -86 -25 -121 -31
-62 -30 -99 3 -138 34 -41 106 -72 227 -100 129 -29 131 -33 122 -183 -5 -87
-21 -315 -25 -359 -2 -18 -76 -49 -147 -62 -43 -7 -97 -20 -119 -28 -22 -8
-64 -18 -94 -22 -47 -6 -126 -40 -271 -115 -43 -22 -95 -96 -104 -148 -4 -21
-40 -105 -80 -188 -72 -147 -102 -222 -94 -231 3 -2 681 -3 1507 -2 l1503 3
-114 115 c-113 114 -137 135 -213 186 -21 15 -46 35 -55 44 -8 9 -62 54 -120
98 -58 44 -127 103 -154 131 -27 28 -56 53 -66 56 -9 3 -22 16 -28 29 -14 31
-78 68 -162 95 -57 18 -76 32 -137 94 -99 100 -126 156 -131 276 -5 103 11
199 34 208 8 3 24 24 36 47 23 44 50 83 113 161 23 28 52 68 67 90 14 23 53
65 87 95 33 30 61 60 61 67 0 7 16 28 35 47 19 20 35 38 35 41 0 18 42 93 54
98 20 8 54 77 66 130 4 23 12 52 16 65 5 17 3 22 -7 20 -8 -2 -12 3 -10 12 2
8 4 36 6 61 1 26 7 55 13 64 5 10 6 32 2 50 -4 18 -4 39 1 46 14 23 10 48 -11
77 -15 20 -21 45 -23 90 -1 52 -4 62 -19 62 -10 0 -19 6 -19 13 -1 6 -2 17 -4
22 -1 6 -3 15 -3 22 -1 7 -14 18 -29 25 -17 8 -30 25 -35 44 -4 17 -15 37 -23
44 -8 7 -15 20 -15 30 0 22 -87 91 -106 83 -8 -3 -22 1 -32 10 -9 8 -42 27
-72 42 -30 15 -68 37 -85 49 -50 36 -263 126 -297 126 -33 0 -241 88 -298 127
-39 26 -39 26 -63 12z m-407 -679 c-27 -24 -30 -24 -30 -6 0 13 15 21 44 25 5
0 -1 -8 -14 -19z m350 -174 c0 -3 -4 -8 -10 -11 -5 -3 -10 -1 -10 4 0 6 5 11
10 11 6 0 10 -2 10 -4z m20 -136 c0 -5 -9 -10 -20 -10 -11 0 -20 5 -20 10 0 6
9 10 20 10 11 0 20 -4 20 -10z m-85 -40 c4 -6 -10 -10 -37 -9 -40 1 -41 2 -13
9 43 11 43 11 50 0z m-95 -10 c0 -5 -7 -10 -15 -10 -8 0 -15 5 -15 10 0 6 7
10 15 10 8 0 15 -4 15 -10z m-215 -1700 c-3 -5 -2 -10 3 -10 4 0 23 -14 41
-32 30 -30 33 -36 28 -81 -2 -27 -1 -43 3 -37 5 9 9 9 14 1 4 -6 5 -15 2 -19
-3 -5 3 -14 14 -22 10 -7 16 -20 12 -28 -3 -10 -1 -13 6 -9 6 4 19 -5 30 -20
21 -31 38 -88 23 -79 -5 3 -7 -2 -5 -11 7 -30 -11 -78 -29 -77 -10 1 -17 -2
-17 -7 0 -17 -20 -9 -42 16 -12 14 -28 25 -35 25 -8 0 -11 5 -7 12 5 8 2 9 -9
5 -11 -4 -17 -1 -17 9 0 8 -6 17 -13 20 -7 2 -13 14 -14 25 -4 45 -25 89 -43
89 -17 0 -40 44 -40 78 0 8 18 43 40 78 22 35 40 68 40 74 0 5 5 10 11 10 5 0
7 -4 4 -10z"/>
<path d="M1280 360 c0 -5 5 -10 11 -10 5 0 7 5 4 10 -3 6 -8 10 -11 10 -2 0
-4 -4 -4 -10z"/>
</g>
</svg>
