<?xml version="1.0" encoding="utf-8"?>
<!-- Generator: Adobe Illustrator 21.0.0, SVG Export Plug-In . SVG Version: 6.00 Build 0)  -->
<svg version="1.1" id="Capa_1" xmlns="http://www.w3.org/2000/svg" xmlns:xlink="http://www.w3.org/1999/xlink" x="0px" y="0px"
	 viewBox="0 0 512 512" style="enable-background:new 0 0 512 512;" xml:space="preserve">
<g>
	<path fill="#F0007C" d="M443.7,338.3v-20.4h3.9V290h7c-4.4-6.3-12.3-18.1-16.4-27.3c-5.8-13.1-12-30.2-12-30.2v-17.4c3.4,0.2,8.5,0.7,14.3,1.7
		c10.1,1.8,17.7-7.9,17.7-7.9s-12.5,3.9-19.5-2.6c-4.1-3.8-9.1-4.6-12.6-4.8V201h-3.8v0.7c-0.2,0-0.6,0.1-0.6,0.1l0.2,13.1l0.3,0v18
		h-0.2c0,0-6,16.7-11.8,29.8c-3.9,9.2-11.9,21-16.3,27.3h7v27.8h3.9v20.4l-43.3,0.6v-92.6h4.9l5.2-9.4v-25.5h-16.5v-47.4h2.3l4-7
		v-19.2h-9.5v-37.3h15.1c-3.6-5.2-31.8-53.2-33.4-60.4c1.9-0.9,3.2-2.6,3.2-4.6c0-2.5-1.8-4.5-4.5-5.1v-11
		c3.7,0.2,12.5,0.8,22.5,2.5c13.1,2.3,23.2-10.3,23.2-10.3s-16.3,5.1-25.5-3.4c-7-6.5-16.1-6.6-20.2-6.3V0h-4.1v30.2
		c-2.6,0.6-4.5,2.6-4.5,5.1c0,2,1.3,3.7,3,4.6c-1.4,7.2-29.5,55.1-33.2,60.4h15v37.3h-9.2v19.2l3.9,7.1h2.4v47.4h-16.6v25.5l5.3,9.4
		h5.1v26.3L274.8,236v-28.1h-13.9v10.3c-2.7-5.7-5.7-12.3-7.6-18c-4.1-12.5-7.8-28.6-7.8-28.6h-0.9v-6.2c3.2,0.2,8.7,0.7,15.3,1.8
		c9.7,1.7,17.1-7.6,17.1-7.6s-12.1,3.8-18.8-2.5c-6.7-6.3-16.5-4.4-16.5-4.4l0.1,3.1v16h-0.6c0,0-3.5,16.1-7.7,28.6
		c-2.9,8.8-8.6,20.3-11.7,26.4h5.8v82.3h-16.8c-3.3-6.6-7.5-15.8-9.9-23.1c-4.4-13.4-8.2-30.6-8.2-30.6h-0.4v-27.2h-4v27.2h-0.4
		c0,0-3.8,17.2-8.2,30.6c-3.1,9.4-9.1,21.7-12.5,28.1h6.3V381h-26.5v-32.4h6v-48.6h10.5c-6.6-6.6-18.6-19.3-24.7-29
		c-8.7-13.9-17.9-31.6-17.9-31.6h-0.2v-23.6c3.1,0.3,7.1,0.7,11.5,1.5c9.7,1.7,17.1-7.6,17.1-7.6s-12.1,3.8-18.8-2.5
		c-6.7-6.4-16.4-4.5-16.4-4.5l0.2,12.7l0.5,0v24h-0.2c0,0-9.1,17.7-17.9,31.6c-6,9.7-18.1,22.4-24.7,29h10.4v48.6h6.1v35.8H44.6
		v127.4h177.4v-53c0,0,1.8-41.6,42.7-41.6c40.9,0,42.4,41.6,42.4,41.6v53h83.2v0.3h77.1V338.3L443.7,338.3L443.7,338.3z M339,197.5
		h-17.6v-25.6c0,0,1.2-7.1,8.7-7.1c7.4,0,9,7.1,9,7.1V197.5z"/>
</g>
</svg>
