<svg id="Babyshop" xmlns="http://www.w3.org/2000/svg" width="496" height="110" viewBox="0 0 496 110">
  <defs>
    <style>
      .cls-1, .cls-2, .cls-3, .cls-4, .cls-5, .cls-6 {
        fill-rule: evenodd;
      }

      .cls-2 {
        fill: #ee7401;
      }

      .cls-3 {
        fill: #fbbc1b;
      }

      .cls-4 {
        fill: #009cdd;
      }

      .cls-5 {
        fill: #73af27;
      }

      .cls-6 {
        fill: #e3348b;
      }
    </style>
  </defs>
  <path class="cls-1" d="M137,47.436l7.063-1.441V84.388c7.317-8.106,15.7-12.939,26.394-12.939,16.763,0,30.634,11.964,30.634,31.108,0,17.7-13.721,32.593-31.712,32.593-20.452,0-32.379-13.2-32.379-33.208v-54.5h0Zm78.345,27.644a46.2,46.2,0,0,1,17.721-3.632c9.51,0,19.112,4.947,19.112,15.363v46.9l-7.077,1.441v-7.632H244.86c-2.412,4.487-7.779,7.632-14.956,7.632-12.517,0-23.21-7.985-23.21-21.186,0-13.456,8.878-23.039,22.38-23.039,6.063,0,11.9,3.392,16.027,7.052v-10.2c0-5.074-6.191-9.314-14.346-9.314-5.844,0-12.389,3.046-17.75,4.82l2.34-8.2h0ZM265.29,47.436l7.056-1.441V84.388c7.319-8.106,15.7-12.939,26.394-12.939,16.757,0,30.656,11.964,30.656,31.108,0,17.7-13.757,32.593-31.769,32.593-20.4,0-32.337-13.2-32.337-33.208v-54.5h0ZM330.084,72.89l6.95-1.442,24.443,44.317L382.9,71.449l7.034,1.442L349.2,156l-6.808-1.462,15.07-31.376L330.084,72.89h0Zm64.334,48.592c4.644,4.353,8.765,6.657,15.331,6.657,7.176,0,13.147-3.745,13.147-11.236,0-15.3-32.23-6.459-32.23-27.767,0-11.158,9.722-17.688,20.182-17.688,7.417,0,12.4,3.011,18.218,7.131l-3.986,5.589c-4.269-3.151-9-5.71-14.6-5.71-6.937,0-12.764,3.392-12.764,10.3,0,15.264,32.222,5.193,32.222,27.753,0,12.734-9.864,18.641-21.764,18.641a25.015,25.015,0,0,1-19.083-9.215l5.327-4.452h0Zm46.47,13.215V47.436l7.055-1.441V80.268h0.227c3.283-5.463,10.2-8.82,17.643-8.82,11.765,0,22.728,4.594,22.728,21.427v40.833l-7.041.989V91.3c0-8.84-5.729-13.561-15.46-13.561-6.686,0-18.1,4.847-18.1,16.578v39.392l-7.055.989h0Zm119.305-31.392c0,16.34-13.269,31.844-31.266,31.844s-31.266-15.5-31.266-31.844c0-16.373,13.268-31.857,31.266-31.857s31.266,15.483,31.266,31.857h0Zm16.764,51.235L569.909,156V72.89l7.048-1.442v14.02h0.234a27.5,27.5,0,0,1,23.941-14.02c17.756,0,31.868,14.883,31.868,32.1a31.276,31.276,0,0,1-31.613,31.6c-9.978,0-18.473-4.113-24.2-11.25h-0.234V154.54h0Z" transform="translate(-137 -46)"/>
  <path id="Shape_124_copy_5" data-name="Shape 124 copy 5" class="cls-2" d="M601.79,128c14.492,0,24.21-12.545,24.21-24.742C626,88.961,616.282,78,601.556,78c-13.589,0-24.549,11.563-24.549,24.868,0,15.875,11.419,25.127,24.783,25.127h0Z" transform="translate(-137 -46)"/>
  <path id="Shape_124_copy_4" data-name="Shape 124 copy 4" class="cls-3" d="M504.749,103.006c0,13.058,10.461,24.991,24.215,24.991,13.726,0,24.195-11.933,24.195-24.991S542.69,78,528.964,78c-13.754,0-24.215,11.947-24.215,25h0Z" transform="translate(-137 -46)"/>
  <path id="Shape_124_copy_3" data-name="Shape 124 copy 3" class="cls-4" d="M230.36,128c8.633,0,14.7-6.478,14.7-15.091,0-9.054-6.192-15.263-14.937-15.263-9.385,0-16.429,6.3-16.429,16.087,0,9.032,8.5,14.266,16.662,14.266h0Z" transform="translate(-137 -46)"/>
  <path class="cls-5" d="M169.429,128c14.349,0,24.088-10.61,24.556-24.742,0-14.636-10.32-25.253-24.918-25.253C155.044,78,144,88.619,144,103.631,144,118.012,155.682,128,169.429,128h0Z" transform="translate(-137 -46)"/>
  <path id="Shape_124_copy" data-name="Shape 124 copy" class="cls-6" d="M297.739,128c14.371,0,24.089-10.61,24.564-24.742C322.3,88.619,312,78,297.391,78c-14,0-25.074,10.617-25.074,25.629,0,14.381,11.675,24.366,25.422,24.366h0Z" transform="translate(-137 -46)"/>
</svg>
