<?xml version="1.0" encoding="UTF-8" standalone="no"?>
<svg
   xmlns:dc="http://purl.org/dc/elements/1.1/"
   xmlns:cc="http://creativecommons.org/ns#"
   xmlns:rdf="http://www.w3.org/1999/02/22-rdf-syntax-ns#"
   xmlns:svg="http://www.w3.org/2000/svg"
   xmlns="http://www.w3.org/2000/svg"
   xmlns:sodipodi="http://sodipodi.sourceforge.net/DTD/sodipodi-0.dtd"
   xmlns:inkscape="http://www.inkscape.org/namespaces/inkscape"
   version="1.0"
   width="445.000000pt"
   height="233.000000pt"
   viewBox="0 0 445.000000 233.000000"
   preserveAspectRatio="xMidYMid meet"
   id="svg2"
   inkscape:version="0.48.4 r9939"
   sodipodi:docname="Barbie_Logo.svg">
  <defs
     id="defs14" />
  <sodipodi:namedview
     pagecolor="#ffffff"
     bordercolor="#666666"
     borderopacity="1"
     objecttolerance="10"
     gridtolerance="10"
     guidetolerance="10"
     inkscape:pageopacity="0"
     inkscape:pageshadow="2"
     inkscape:window-width="1600"
     inkscape:window-height="844"
     id="namedview12"
     showgrid="false"
     inkscape:zoom="0.61842697"
     inkscape:cx="278.125"
     inkscape:cy="145.625"
     inkscape:window-x="-4"
     inkscape:window-y="-4"
     inkscape:window-maximized="1"
     inkscape:current-layer="svg2" />
  <metadata
     id="metadata4">
Created by potrace 1.11, written by Peter Selinger 2001-2013
<rdf:RDF>
  <cc:Work
     rdf:about="">
    <dc:format>image/svg+xml</dc:format>
    <dc:type
       rdf:resource="http://purl.org/dc/dcmitype/StillImage" />
  </cc:Work>
</rdf:RDF>
</metadata>
  <g
     transform="translate(0.000000,233.000000) scale(0.100000,-0.100000)"
     fill="#000000"
     stroke="none"
     id="g6"
     style="fill:#ff5599">
    <path
       d="M920 2264 c-86 -10 -198 -37 -306 -75 -250 -86 -331 -152 -377 -305 -16 -53 -9 -84 18 -84 8 0 74 25 146 56 72 30 133 53 137 50 3 -3 -74 -252 -171 -553 -310 -962 -324 -1012 -312 -1082 11 -64 73 -111 145 -111 51 0 67 15 81 75 7 30 15 55 19 55 3 0 14 -18 23 -39 10 -21 37 -57 62 -79 176 -164 515 -21 730 306 l59 91 24 -42 c59 -105 130 -139 215 -104 31 13 121 104 155 155 l15 24 25 -52 c58 -122 177 -119 277 7 52 66 152 235 216 366 43 87 54 98 77 75 20 -20 14 -60 -30 -174 -66 -175 -55 -271 39 -338 56 -39 119 -45 173 -17 35 18 40 19 40 4 0 -65 77 -177 140 -203 17 -7 51 -10 81 -8 61 6 116 43 179 121 50 62 131 209 150 273 l12 41 36 -19 c20 -10 42 -18 49 -18 9 0 13 -17 13 -55 0 -35 7 -69 19 -93 38 -74 122 -132 191 -132 40 0 134 34 181 65 l38 25 49 -49 c117 -117 303 -121 486 -11 168 102 377 285 392 344 11 44 -43 156 -75 156 -5 0 -34 -30 -65 -68 -110 -131 -297 -277 -458 -358 -104 -52 -158 -45 -179 26 -12 38 -11 41 17 62 210 165 374 386 374 504 0 40 -51 103 -104 128 -81 38 -145 9 -266 -121 -123 -132 -189 -263 -198 -391 -5 -70 -6 -74 -45 -107 -58 -50 -119 -77 -164 -73 l-38 3 0 52 c1 43 11 72 57 165 45 89 76 135 147 216 50 56 91 111 91 121 0 19 -75 121 -89 121 -17 0 -89 -60 -127 -106 -59 -72 -78 -101 -132 -205 -49 -93 -50 -94 -89 -97 -34 -3 -41 1 -51 23 -7 14 -12 34 -12 43 0 9 -5 34 -11 56 -10 38 -11 38 -51 33 -21 -3 -57 -18 -79 -33 -38 -26 -39 -28 -39 -88 0 -54 -6 -75 -56 -175 -41 -84 -70 -129 -113 -172 -31 -33 -62 -59 -69 -59 -24 0 -42 48 -48 130 l-7 85 105 125 c125 150 241 301 330 430 182 264 368 622 368 707 0 41 -52 115 -100 142 -59 33 -95 18 -195 -83 -305 -309 -553 -760 -635 -1156 -27 -127 -36 -147 -89 -185 -33 -23 -45 -27 -59 -19 -38 24 -28 75 49 252 69 159 65 206 -26 262 -43 27 -52 58 -31 113 33 88 14 120 -72 120 -73 0 -130 -76 -139 -187 -4 -51 -18 -85 -85 -216 -92 -177 -155 -278 -199 -315 -71 -59 -63 7 26 226 36 87 65 164 65 172 0 21 -32 46 -68 53 -53 11 -70 -11 -222 -279 -61 -108 -98 -161 -133 -193 -55 -49 -77 -54 -106 -22 -78 83 1 273 195 472 102 105 158 121 230 66 61 -46 111 -36 135 27 16 42 10 72 -20 105 l-29 33 -109 0 c-104 0 -111 -1 -184 -36 -91 -44 -209 -150 -274 -246 l-41 -63 -23 55 c-30 71 -90 138 -152 168 l-50 23 88 66 c158 117 293 276 376 441 29 56 32 71 32 152 0 82 -3 97 -34 158 -39 81 -124 170 -196 209 -85 45 -243 73 -345 62z m319 -210 c108 -54 133 -149 72 -279 -56 -121 -174 -268 -290 -364 -174 -143 -229 -174 -362 -203 l-107 -24 14 46 c7 25 41 131 74 235 75 236 91 294 92 351 0 39 -5 51 -41 94 l-42 50 43 19 c153 65 289 99 409 100 73 1 92 -3 138 -25z m1837 -381 c-53 -124 -160 -325 -242 -451 -65 -101 -216 -304 -221 -298 -2 2 12 48 32 102 54 146 183 404 263 525 70 107 203 260 210 240 2 -5 -17 -59 -42 -118z m824 -593 c0 -16 -49 -109 -82 -158 -35 -50 -120 -138 -168 -172 l-32 -23 7 24 c3 13 22 57 41 98 27 58 53 93 118 158 76 75 116 101 116 73z m-2958 -56 c26 -13 59 -40 75 -61 26 -34 28 -43 28 -127 0 -83 -3 -98 -34 -163 l-34 -73 -35 32 c-48 41 -124 76 -187 83 -92 12 -227 -36 -337 -121 -27 -20 -48 -32 -48 -27 0 4 27 98 58 208 l58 200 79 12 c82 13 199 46 225 63 21 15 96 2 152 -26z m-97 -476 c30 -13 41 -46 28 -85 -19 -56 -195 -183 -275 -198 -31 -6 -41 -3 -62 19 -106 105 160 332 309 264z"
       id="path8"
       style="fill:#ff5599" />
    <path
       d="M3605 1641 c-53 -24 -139 -113 -170 -175 -28 -57 -31 -101 -11 -151 23 -54 106 -96 119 -61 3 8 38 40 77 71 39 31 88 79 110 107 33 41 40 58 40 94 0 38 -6 50 -43 89 -48 50 -63 53 -122 26z"
       id="path10"
       style="fill:#ff5599" />
  </g>
</svg>
