<svg xmlns:dc="http://purl.org/dc/elements/1.1/" xmlns:cc="http://creativecommons.org/ns#" xmlns:rdf="http://www.w3.org/1999/02/22-rdf-syntax-ns#" xmlns:svg="http://www.w3.org/2000/svg" xmlns="http://www.w3.org/2000/svg" xmlns:sodipodi="http://sodipodi.sourceforge.net/DTD/sodipodi-0.dtd" xmlns:inkscape="http://www.inkscape.org/namespaces/inkscape" version="1.1" x="0px" y="0px" viewBox="0 0 100 100"><g transform="translate(0,-952.36218)"><path style="text-indent:0;text-transform:none;direction:ltr;block-progression:tb;baseline-shift:baseline;color:#000000;enable-background:accumulate;" d="m 28.01535,979.37388 c -0.2569,0 -0.5255,0.086 -0.7214,0.2823 -0.3919,0.3919 -0.3919,1.0194 0,1.4113 l 21.2948,21.29472 -21.2948,21.2947 c -0.3919,0.392 -0.3919,1.0194 0,1.4113 0.3919,0.392 1.0195,0.3919 1.4113,0 l 21.2948,-21.2947 21.2947,21.2947 c 0.3918,0.3919 1.0194,0.392 1.4113,0 0.3919,-0.3919 0.3919,-1.0193 0,-1.4113 l -21.2948,-21.2947 21.2948,-21.29472 c 0.3919,-0.3919 0.3919,-1.0194 0,-1.4113 -0.3919,-0.392 -1.0195,-0.3919 -1.4113,0 l -21.2947,21.29472 -21.2948,-21.29472 c -0.1959,-0.196 -0.4331,-0.2823 -0.6899,-0.2823 z" fill="#000000" fill-opacity="1" stroke="none" marker="none" visibility="visible" display="inline" overflow="visible"/></g></svg>