<svg xmlns="http://www.w3.org/2000/svg" xmlns:xlink="http://www.w3.org/1999/xlink" version="1.1" x="0px" y="0px" viewBox="0 0 100 100" enable-background="new 0 0 100 100" xml:space="preserve"><g><g><path fill="#000000" d="M92.287,95h-23.93c-1.499,0-2.713-1.215-2.713-2.713c0-1.499,1.215-2.713,2.713-2.713h21.217V68.357    c0-1.499,1.215-2.713,2.713-2.713c1.499,0,2.713,1.215,2.713,2.713v23.93C95,93.786,93.785,95,92.287,95z"/></g><g><path fill="#000000" d="M31.644,95H7.713C6.215,95,5,93.786,5,92.287v-23.93c0-1.499,1.215-2.713,2.713-2.713    s2.713,1.215,2.713,2.713v21.217h21.217c1.499,0,2.713,1.215,2.713,2.713C34.357,93.786,33.142,95,31.644,95z"/></g></g><g><g><path fill="#000000" d="M7.713,34.357C6.215,34.357,5,33.143,5,31.644V7.713C5,6.214,6.215,5,7.713,5h23.93    c1.499,0,2.713,1.215,2.713,2.713s-1.215,2.713-2.713,2.713H10.427v21.217C10.427,33.143,9.212,34.357,7.713,34.357z"/></g><g><path fill="#000000" d="M92.287,34.357c-1.499,0-2.713-1.215-2.713-2.713V10.427H68.356c-1.499,0-2.713-1.215-2.713-2.713    S66.858,5,68.356,5h23.93C93.785,5,95,6.214,95,7.713v23.931C95,33.143,93.785,34.357,92.287,34.357z"/></g></g></svg>