<svg xmlns="http://www.w3.org/2000/svg" xmlns:xlink="http://www.w3.org/1999/xlink" version="1.1" x="0px" y="0px" viewBox="0 0 100 100" enable-background="new 0 0 100 100" xml:space="preserve"><g><path fill="#000000" d="M68.356,95c-1.499,0-2.713-1.215-2.713-2.713v-23.93c0-1.499,1.215-2.713,2.713-2.713h23.93   c1.499,0,2.713,1.215,2.713,2.713s-1.215,2.713-2.713,2.713H71.07v21.217C71.07,93.786,69.855,95,68.356,95z"/></g><g><path fill="#000000" d="M31.644,95c-1.499,0-2.713-1.215-2.713-2.713V71.07H7.713C6.215,71.07,5,69.855,5,68.357   s1.215-2.713,2.713-2.713h23.93c1.499,0,2.713,1.215,2.713,2.713v23.93C34.357,93.786,33.142,95,31.644,95z"/></g><g><path fill="#000000" d="M31.644,34.357H7.713C6.215,34.357,5,33.143,5,31.644c0-1.499,1.215-2.713,2.713-2.713H28.93V7.713   C28.93,6.214,30.145,5,31.644,5s2.713,1.215,2.713,2.713v23.931C34.357,33.143,33.142,34.357,31.644,34.357z"/></g><g><path fill="#000000" d="M92.287,34.357h-23.93c-1.499,0-2.713-1.215-2.713-2.713V7.713C65.643,6.214,66.858,5,68.356,5   c1.499,0,2.713,1.215,2.713,2.713V28.93h21.217c1.499,0,2.713,1.215,2.713,2.713C95,33.143,93.785,34.357,92.287,34.357z"/></g></svg>