<svg xmlns="http://www.w3.org/2000/svg" viewBox="0 0 187.39 77.21"><defs><style>.cls-1{fill:#fff;stroke:#1d1d1b;stroke-miterlimit:2.61;stroke-width:0.3px;}.cls-1,.cls-2{fill-rule:evenodd;}.cls-2{fill:#e20613;}</style></defs><title>Asset 1</title><g id="Layer_2" data-name="Layer 2"><g id="Layer_1-2" data-name="Layer 1"><path class="cls-1" d="M88.44,75.69,3.58,43c-4.59-2.5-4.69-6.6.4-9L90.24.82a11.26,11.26,0,0,1,7.68,0l86,33.18c4.29,1.6,4.49,7.5.5,9.09L99.31,75.89c-3.79,1.6-6.78,1.6-10.87-.2Z"/><path class="cls-2" d="M148.58,42.6H145c-.2,2-1.1,2.6-2.29,2.6-2.19,0-2.29-2.4-2.29-4.3h8.48v-3c-.3-7.1-3-11.89-6.08-11.89-3.59,0-7.08,4.5-7.18,12.59,0,7.3,3.69,12.6,7.18,12.7,3,.1,5.88-4.2,5.78-8.7Zm-8.08-6.1c0-2,.6-3.6,2-3.6s1.89,2,2,3.6ZM67.4,42.6H63.71c-.2,2-1.1,2.6-2.19,2.6-2.19,0-2.29-2.4-2.29-4.3H67.7c.1-.6-.1-2.4-.1-3C67.4,30.81,64.71,26,61.52,26c-3.49,0-7.08,4.5-7.08,12.59,0,7.3,3.59,12.6,7.08,12.7,3,.1,6-4.2,5.88-8.7Zm-8.18-6.1c0-2,.7-3.6,2-3.6s2,2,2.09,3.6Zm-6,6.1H49.55c-.1,2-1.1,2.6-2.29,2.6-2.09,0-2.19-2.4-2.19-4.3h8.48v-3c-.3-7.1-3-11.89-6.18-11.89-3.49,0-7.08,4.5-7.08,12.59,0,7.3,3.59,12.6,7.08,12.7,3,.1,6-4.2,5.88-8.7Zm-8.18-6.1c0-2,.7-3.6,2-3.6s2,2,2.09,3.6ZM89.64,45.9l-4.49-3.8c-1.1,2-1.89,2.7-3.69,2.7-1.6-.1-3.49-2-4-9.69,0-8.5,1.7-12.39,3.79-12.39,1.6,0,2.39,1.2,2.69,2.6L89,21.81c-.8-4.6-4.09-8.6-8.08-8.9-5.78,0-10.57,11-10.37,22.09.3,12.79,6.18,20.09,10.17,19.79,4.59,0,7.48-5.4,8.88-8.9Zm22.24-13.09c1.4,0,2.19,2.5,2.29,5.6-.2,3.4-.9,5.9-2.29,5.9s-2.19-1.6-2.49-5.9c.2-3.7,1-5.6,2.49-5.6Zm-7.58,5.3c-.2,7.29,3.29,13.09,7.18,13.19,4.19.1,7.28-5.7,7.18-12.89s-3-13.59-7.08-13.49c-4.39,0-7.18,6.4-7.28,13.19Zm-7.88-5.3c1.3,0,2.19,2.5,2.39,5.6-.3,3.4-1.1,5.9-2.39,5.9s-2.19-1.6-2.49-5.9c.2-3.7,1-5.6,2.49-5.6Zm-7.48,5.3c.1-6.8,2.89-13.19,7.18-13.19,4-.1,7,6.3,7.08,13.49s-3.09,13-7.28,12.89c-3.79-.1-7.18-5.9-7-13.19Zm36,.2c-.1-1.5.4-6.1,2.19-6.1s2.19,2.3,2.39,5.5c-.1,3.5-.8,6.1-2.39,6.1s-2.29-3.9-2.19-5.5ZM34.59,25.71,90.34,4.42a9.74,9.74,0,0,1,8.18,0L155,25.71h-4.69V50h5.19V34.71c0-1.7.3-3.6,2.39-3.7a30,30,0,0,1,3.09-.1V28l20.94,8c3.19,1.2,3.29,4,.3,5.3L113.27,66.89c-8.68,3.2-16,6.7-18.75,6.4-4.69-.2-9.17-2.8-9.17-6.4.2-2,2-3.7,6-4.9a95.84,95.84,0,0,1,17.45-2.1l14.46-.2c1.1,0,1.79-.7,2-2.2V49a4.54,4.54,0,0,0,3.49,1.7c3.39.1,5.78-6.9,5.78-13.19-.2-6.7-2.69-12.59-6.38-12.59-1.4,0-1.89.7-3.09,1.9l-.5-1H120V55.9c-4.69-.2-9.27-.5-13.86-.9-6.38-.2-12-.2-17.15.1a46.06,46.06,0,0,0-14.56,3.7c-2.89,1.5-5,4-6.78,6L32.1,51.2h8.28V44.5H34.59V25.71ZM27.41,49.5V28.11l-21.24,8c-3.19,1.3-3.29,3.9,0,5.3l21.24,8.1Z"/></g></g></svg>