<?xml version="1.0" encoding="utf-8"?>
<!-- Generator: Adobe Illustrator 21.0.0, SVG Export Plug-In . SVG Version: 6.00 Build 0)  -->
<svg version="1.1" id="Layer_1" xmlns="http://www.w3.org/2000/svg" xmlns:xlink="http://www.w3.org/1999/xlink" x="0px" y="0px"
	 viewBox="0 0 50.9 100" style="enable-background:new 0 0 50.9 100;" xml:space="preserve">
<path d="M43.1,0H7.8C3.5,0,0,3.5,0,7.8v84.3c0,4.3,3.5,7.8,7.8,7.8h35.3c4.3,0,7.8-3.5,7.8-7.8V7.8C50.9,3.5,47.4,0,43.1,0z
	 M21.6,8.3h7.7c0.6,0,1,0.5,1,1c0,0.6-0.5,1-1,1h-7.7c-0.6,0-1-0.5-1-1C20.6,8.8,21,8.3,21.6,8.3z M17.1,7.9c0.7,0,1.2,0.6,1.2,1.2
	s-0.6,1.2-1.2,1.2s-1.2-0.6-1.2-1.2C15.9,8.5,16.4,7.9,17.1,7.9z M25.5,95.8c-2.7,0-4.9-2.2-4.9-4.9c0-2.7,2.2-4.9,4.9-4.9
	s4.9,2.2,4.9,4.9C30.4,93.6,28.2,95.8,25.5,95.8z M47,82.5H3.9v-65H47V82.5z"/>
</svg>
