<?xml version="1.0" encoding="UTF-8" standalone="no"?>
<svg
   xmlns:dc="http://purl.org/dc/elements/1.1/"
   xmlns:cc="http://creativecommons.org/ns#"
   xmlns:rdf="http://www.w3.org/1999/02/22-rdf-syntax-ns#"
   xmlns:svg="http://www.w3.org/2000/svg"
   xmlns="http://www.w3.org/2000/svg"
   xmlns:sodipodi="http://sodipodi.sourceforge.net/DTD/sodipodi-0.dtd"
   xmlns:inkscape="http://www.inkscape.org/namespaces/inkscape"
   version="1.1"
   x="0px"
   y="0px"
   width="74.168144"
   height="45.00148"
   viewBox="5 -10 74.168144 60.751998"
   enable-background="new 0 0 100 100"
   xml:space="preserve"
   id="svg2"
   inkscape:version="0.91 r13725"
   sodipodi:docname="AberLift_WHITE.svg"><metadata
     id="metadata18"><rdf:RDF><cc:Work
         rdf:about=""><dc:format>image/svg+xml</dc:format><dc:type
           rdf:resource="http://purl.org/dc/dcmitype/StillImage" /><dc:title></dc:title></cc:Work></rdf:RDF></metadata><defs
     id="defs16" /><sodipodi:namedview
     pagecolor="#ffffff"
     bordercolor="#666666"
     borderopacity="1"
     objecttolerance="10"
     gridtolerance="10"
     guidetolerance="10"
     inkscape:pageopacity="0"
     inkscape:pageshadow="2"
     inkscape:window-width="1443"
     inkscape:window-height="859"
     id="namedview14"
     showgrid="false"
     fit-margin-top="0"
     fit-margin-left="0"
     fit-margin-right="0"
     fit-margin-bottom="0"
     inkscape:zoom="2.8465474"
     inkscape:cx="87.366713"
     inkscape:cy="-47.862514"
     inkscape:window-x="0"
     inkscape:window-y="0"
     inkscape:window-maximized="0"
     inkscape:current-layer="svg2" /><g
     id="Captions"
     transform="translate(-15.869201,-19.900423)" /><g
     id="Your_Icon"
     transform="matrix(-1,0,0,1,92.14027,-29.625)"
     style="fill:#ffffff;fill-opacity:1"><g
       id="g6"
       style="fill:#ffffff;fill-opacity:1"><path
         d="M 94.385,53.687 C 93.374,34.737 77.637,19.625 58.438,19.625 c -14.666,0 -27.866,8.979 -33.34,22.5 l -0.41,0 -11.25,0 c -7.443,0 -13.501,6.058 -13.501,13.501 0,6.738 4.966,12.319 11.426,13.325 1.006,6.46 6.587,11.426 13.325,11.426 6.675,0 12.222,-4.878 13.296,-11.25 l 24.033,0 c 1.074,6.372 6.621,11.25 13.296,11.25 6.675,0 12.222,-4.878 13.296,-11.25 l 3.579,0 c 4.341,0 7.876,-3.535 7.876,-7.876 -10e-4,-3.58 -2.403,-6.61 -5.679,-7.564 z m -2.197,10.937 -3.579,0 c -1.074,-6.372 -6.621,-11.25 -13.296,-11.25 -6.675,0 -12.222,4.878 -13.296,11.25 l -24.034,0 c -1.074,-6.372 -6.621,-11.25 -13.296,-11.25 -6.592,0 -12.085,4.751 -13.26,11.006 -3.994,-0.918 -6.989,-4.487 -6.989,-8.755 0,-4.961 4.038,-8.999 8.999,-8.999 l 11.25,0 1.963,0 31.787,0 c 1.242,0 2.251,-1.009 2.251,-2.251 l 0,-20.137 c 16.319,1.162 29.249,14.776 29.249,31.387 0,1.242 1.009,2.251 2.251,2.251 1.86,0 3.374,1.514 3.374,3.374 0,1.86 -1.514,3.374 -3.374,3.374 z m -8.194,4.502 c -1.006,3.87 -4.502,6.748 -8.682,6.748 -4.18,0 -7.676,-2.878 -8.682,-6.748 -0.186,-0.726 -0.317,-1.47 -0.317,-2.251 0,-0.781 0.132,-1.525 0.317,-2.251 1.006,-3.87 4.502,-6.748 8.682,-6.748 4.18,0 7.676,2.878 8.682,6.748 0.186,0.726 0.317,1.47 0.317,2.251 0,0.781 -0.131,1.525 -0.317,2.251 z m -50.625,0 c -1.006,3.87 -4.502,6.748 -8.682,6.748 -4.18,0 -7.676,-2.878 -8.682,-6.748 -0.186,-0.726 -0.317,-1.47 -0.317,-2.251 0,-0.781 0.132,-1.525 0.317,-2.251 1.006,-3.87 4.502,-6.748 8.682,-6.748 4.18,0 7.676,2.878 8.682,6.748 0.186,0.726 0.317,1.47 0.317,2.251 0,0.781 -0.131,1.525 -0.317,2.251 z m 22.818,-44.912 0,17.91 -26.153,0 C 34.883,31.919 44.888,25.027 56.187,24.214 Z"
         id="path8"
         inkscape:connector-curvature="0"
         style="fill:#ffffff;fill-opacity:1" /></g></g><text
     x="-15.869201"
     y="97.599579"
     font-size="5.0"
     font-weight="bold"
     id="text10"
     style="font-weight:bold;font-size:5px;font-family:'Helvetica Neue', Helvetica, Arial-Unicode, Arial, Sans-serif;fill:#000000">Created by Tim Boelaars</text>
<text
     x="-15.869201"
     y="102.59958"
     font-size="5.0"
     font-weight="bold"
     id="text12"
     style="font-weight:bold;font-size:5px;font-family:'Helvetica Neue', Helvetica, Arial-Unicode, Arial, Sans-serif;fill:#000000">from the Noun Project</text>
</svg>